<svg width="24" height="24" viewBox="0 0 24 24" fill="none" xmlns="http://www.w3.org/2000/svg">
<path d="M3.59998 4.80001C3.59998 4.13726 4.13723 3.60001 4.79998 3.60001H19.2C19.8627 3.60001 20.4 4.13726 20.4 4.80001V7.20001C20.4 7.86275 19.8627 8.40001 19.2 8.40001H4.79998C4.13723 8.40001 3.59998 7.86275 3.59998 7.20001V4.80001Z" fill="#687782"/>
<path d="M3.59998 12C3.59998 11.3373 4.13723 10.8 4.79998 10.8H12C12.6627 10.8 13.2 11.3373 13.2 12V19.2C13.2 19.8627 12.6627 20.4 12 20.4H4.79998C4.13723 20.4 3.59998 19.8627 3.59998 19.2V12Z" fill="#687782"/>
<path d="M16.8 10.8C16.1372 10.8 15.6 11.3373 15.6 12V19.2C15.6 19.8627 16.1372 20.4 16.8 20.4H19.2C19.8627 20.4 20.4 19.8627 20.4 19.2V12C20.4 11.3373 19.8627 10.8 19.2 10.8H16.8Z" fill="#687782"/>
</svg>
