<svg width="207" height="85" viewBox="0 0 207 85" fill="none" xmlns="http://www.w3.org/2000/svg">
<path d="M171.973 35.1048H184.812L185.916 36.0584L186.744 37.012V40.6901H183.155L183.017 38.9192L173.63 38.7829V49.9536L183.017 49.8174V47.6377L183.155 46.8204H178.461L178.323 46.6841V43.1422H186.744V51.5883L186.33 52.2695L185.088 53.6317H171.697L170.04 51.997L169.902 51.5883V37.2844L170.454 36.4671L171.697 35.241L171.973 35.1048Z" fill="#FBFCF8"/>
<path d="M105.984 35.1048H118.961L119.651 35.5135L121.032 36.8758L121.17 37.5569V51.4521L120.894 52.1332L120.203 52.8144H119.927L119.651 53.3593L119.375 53.6317H105.846L105.018 52.6782L104.189 51.8608V37.012L104.879 36.3308L105.984 35.1048ZM107.917 38.7829V49.8174L108.055 49.9536H117.304V38.7829H107.917Z" fill="#FBFCF8"/>
<path d="M191.438 35.1048H204.277L204.967 35.5135L205.934 36.6033L206.348 37.012V51.7246L206.072 52.2695L204.967 53.2231L204.553 53.6317H191.162L189.505 51.997V37.012L190.472 35.9222L191.438 35.1048ZM193.233 38.7829V49.9536H202.482L202.62 49.8174V38.9192L202.482 38.7829H193.233Z" fill="#FBFCF8"/>
<path d="M143.258 35.1048H158.858L158.996 35.7859L158.858 38.6467L158.72 38.7829H146.709V42.5973H157.892L158.03 42.7335V46.1392L157.754 46.2755H146.709V49.9536H158.858V53.6317H143.12L142.982 53.4955V35.241L143.258 35.1048Z" fill="#FBFCF8"/>
<path d="M123.793 35.1048H134.837L135.941 36.0584L140.497 40.5539L140.635 41.0988L140.497 51.997L139.531 52.9506H139.255L138.978 53.4955L138.84 53.6317H123.655V35.241L123.793 35.1048ZM127.52 38.7829L127.382 39.8728V49.2725L127.52 49.9536H136.908V42.4611L135.941 41.5075L135.113 40.8264L134.285 39.8728H134.009L133.732 39.3279L133.18 38.7829H127.52Z" fill="#FBFCF8"/>
<path d="M86.7947 35.1048H99.9096L101.842 37.012V40.5539L101.704 40.6901H98.253L98.115 40.5539V38.7829H88.7274V49.9536H98.115V48.1826H101.704L101.842 48.3189V51.7246L100.876 52.8144L100.324 53.4955L100.048 53.6317H86.6566L85.6903 52.5419L85 51.8608V37.012L86.2425 35.6497L86.7947 35.1048Z" fill="#FBFCF8"/>
<path d="M160.653 42.5973H167.969L168.107 42.7335V46.1392L167.969 46.2754H160.791L160.653 46.1392V42.5973Z" fill="#FBFCF8"/>
<path d="M36.3077 0.104797L37.136 0.241025L39.759 1.73953L43.0723 3.64671L47.0758 5.82635L50.5271 7.73354L53.2882 9.36827L58.258 12.0928L61.5713 14L63.504 15.0898L65.5748 16.3159L67.7836 17.4057L69.8544 18.6317L72.8916 20.2665L73.4438 20.6752L73.3057 21.0838L71.511 22.1737L71.0969 22.4461L70.4066 22.3099L63.0899 18.0868L59.5005 16.1796L56.1872 14.2725L50.3891 11.003L47.0758 9.23204L45.2811 8.14222L41.4157 5.96258L39.759 5.00899L38.2405 4.19162L36.8599 3.51049L36.1697 3.64671L33.2706 5.28144L29.9573 7.18863L26.0919 9.5045L22.9167 11.2755L19.8795 13.0464L16.7043 14.9536L13.3911 16.8608L10.492 18.4955L8.69729 19.5853L5.52209 21.4925L3.1752 22.8548H2.8991V32.1183L3.1752 61.6796L3.31325 62.0883L4.00351 62.3608L7.31677 64.1317L10.492 65.9027L14.0813 67.9461L16.8424 69.5808L18.499 70.3982L20.9839 71.7605L24.7113 73.9401L28.4388 75.9835L29.9573 76.8009L33.4086 78.7081L35.8936 80.2066L37.136 80.8877L37.8263 80.6153L40.0351 79.3892L43.9006 77.0734L46.3855 75.7111L50.251 73.3952L54.2545 71.0794L57.4297 69.3084L59.2244 68.2186L62.6757 66.1752L65.0226 64.8129L67.5075 63.4506L69.9925 61.9521L70.9588 61.4072L71.6491 61.5434L73.8579 62.497V63.0419L70.9588 64.6767L64.8845 68.2186L61.4332 70.262L57.9819 72.1692L55.3589 73.8039L51.7696 75.8473L50.3891 76.6647L46.5236 78.8443L43.6245 80.6153L40.7254 82.25L37.9644 83.8847L37.2741 84.1572L35.6175 83.3398L32.7184 81.7051L29.2671 79.7979L26.2299 78.027L22.6406 76.1198L20.2937 74.7575L16.7043 72.7141L13.8052 71.0794L10.7681 69.4446L7.45482 67.5374L3.86546 65.494L0.552209 63.7231L0.276104 63.3144L0 21.4925L0.690261 20.9476L4.00351 19.0404L6.0743 17.8144L9.2495 16.0434L13.115 13.7276L16.1521 11.9566L19.0512 10.3219L23.4689 7.73354L26.9202 5.69013L30.5095 3.64671L32.8564 2.28444L35.4794 0.649708L36.3077 0.104797Z" fill="#FBFCF8"/>
<path d="M36.3076 4.87277H37.1359L41.0014 7.05241L44.3147 8.9596L48.0421 11.003L50.8031 12.5015L52.8739 13.7276L56.7394 15.9072L62.9517 19.3129L65.2986 20.6752L68.1977 22.3099L69.3021 23.1273L69.1641 23.5359H68.3357L64.8844 21.765L61.157 19.5853L57.9818 17.8144L54.9447 16.1797L51.6314 14.2725L48.7323 12.6377L45.281 10.7306L42.1058 8.9596L38.7926 7.05241L36.9979 5.96259L36.3076 6.09882L34.3749 7.18864L31.89 8.68714L28.5767 10.5943L25.4015 12.3653L21.536 14.6812L17.5325 16.997L13.9432 19.0404L10.0777 21.3563L7.04057 23.1273L5.24589 24.0809V35.3877L5.38394 55.277L5.52199 60.7261L8.14498 62.0883L11.4582 63.9955L15.3237 66.0389L20.9838 69.3084L22.3644 70.1258L24.2971 71.0794L27.6103 72.9865L31.4758 75.1662L34.513 76.8009L37.1359 78.2994L37.8262 78.1632L39.6209 77.0734L43.2102 75.03L47.0757 72.7141L50.6651 70.6707L54.6686 68.3548L59.5004 65.494L63.0898 63.4506L65.1605 62.2246L68.1977 60.4536L69.4402 60.0449L69.8543 60.3174V60.5898L67.5074 62.0883L63.642 64.268L61.2951 65.6303L57.9818 67.5374L56.1872 68.6273L54.8066 69.4446L51.4934 71.3518L47.6279 73.5315L45.8332 74.6213L43.7625 75.8473L40.8634 77.4821L38.1023 79.1168L37.6882 79.3892L36.7218 79.253L32.9944 77.2096L29.8192 75.4386L27.8864 74.3488L25.2635 72.8503L22.0883 71.0794L18.0847 68.8997L15.7379 67.5374L11.8724 65.3578L8.55914 63.5868L5.66004 61.9521L4.41757 61.1348L4.27952 55.277L4.00342 26.2605V23.8084L4.41757 23.2635L6.35031 22.3099L10.0777 20.1303L13.1149 18.3593L15.4618 16.997L17.6706 15.771L24.5732 11.6841L27.6103 10.0494L29.8192 8.68714L31.89 7.4611L35.0652 5.55391L36.3076 4.87277Z" fill="#FBFCF8"/>
<path d="M36.0316 30.6198L36.7219 30.756L35.7555 32.6632L34.7891 34.0255L33.4086 36.3413L31.3378 39.6108L30.6476 40.5644L30.7856 41.1093L32.9944 44.6512L35.3413 48.4656L36.5838 50.3728L36.7219 50.7815L36.5838 50.9177H27.7485L27.3343 50.7815L25.2635 47.512L23.3308 44.515L21.6742 41.6542L21.26 40.9731L21.5361 40.1557L23.4688 36.8862L25.2635 34.1617L27.0582 31.3009L27.4724 30.756L36.0316 30.6198ZM28.3007 31.8458L28.1626 32.527L28.3007 35.1153L28.8529 37.9761L29.5431 39.6108L30.0954 39.4746L31.4759 37.1587L33.6847 33.8892L34.6511 31.9821L28.3007 31.8458ZM26.7821 33.8892L25.2635 36.2051L23.6069 38.7934L22.5025 40.5644L22.6405 41.2455L24.8494 44.7874L26.3679 47.1033L27.4724 48.8743L28.0246 49.6916H34.6511L33.6847 47.7845L32.1661 45.4686L29.129 40.5644L28.0246 38.1123L27.4724 36.3413L27.0582 33.8892H26.7821Z" fill="#FBFCF8"/>
<path d="M38.5166 30.6198H47.49L48.0422 30.8922L49.9749 34.0255L51.4935 36.3413L53.1501 39.2021L54.1165 40.5644L53.9784 41.2455L53.1501 42.4716L50.9413 46.1497L47.9042 50.7815L47.628 50.9177H38.7927L38.6547 50.509L39.7591 48.738L41.2776 46.2859L44.5909 41.1093V40.5644L42.7962 37.7036L41.2776 35.3877L39.483 32.3907L38.5166 30.8922V30.6198ZM41.1396 31.8458L40.4493 31.9821L41.4157 33.6168L43.0723 36.0689L44.867 38.9297L46.3856 41.518L47.3519 43.6976L47.9042 45.741L48.1803 47.9207H48.4564L49.8369 45.741L51.3555 43.4252L52.736 40.9731L52.4599 40.2919L51.3555 38.2485L49.4227 35.2515L48.3183 33.4806L47.3519 32.1183L47.0758 31.8458H41.1396ZM45.2812 42.0629L44.4528 43.2889L42.9343 45.741L41.4157 48.0569L40.4493 49.5554V49.6916L46.3856 49.8279L47.0758 49.6916V47.2395L46.6617 44.7874L45.9714 42.744L45.5573 42.0629H45.2812Z" fill="#FBFCF8"/>
</svg>
