<svg width="207" height="85" viewBox="0 0 207 85" xmlns="http://www.w3.org/2000/svg">
<path d="M171.973 35H184.812L185.916 35.9536L186.744 36.9072V40.5853H183.155L183.017 38.8144L173.63 38.6781V49.8488L183.017 49.7126V47.5329L183.155 46.7156H178.461L178.323 46.5793V43.0374H186.744V51.4835L186.33 52.1647L185.088 53.5269H171.697L170.04 51.8922L169.902 51.4835V37.1796L170.454 36.3623L171.697 35.1362L171.973 35Z" fill="#212214"/>
<path d="M105.984 35H118.961L119.651 35.4087L121.032 36.771L121.17 37.4521V51.3473L120.894 52.0284L120.203 52.7096H119.927L119.651 53.2545L119.375 53.5269H105.846L105.018 52.5734L104.189 51.756V36.9072L104.879 36.226L105.984 35ZM107.917 38.6781V49.7126L108.055 49.8488H117.304V38.6781H107.917Z" fill="#212214"/>
<path d="M191.438 35H204.277L204.967 35.4087L205.934 36.4985L206.348 36.9072V51.6198L206.072 52.1647L204.967 53.1183L204.553 53.5269H191.162L189.505 51.8922V36.9072L190.472 35.8174L191.438 35ZM193.233 38.6781V49.8488H202.482L202.62 49.7126V38.8144L202.482 38.6781H193.233Z" fill="#212214"/>
<path d="M143.258 35H158.858L158.996 35.6811L158.858 38.5419L158.72 38.6781H146.709V42.4925H157.892L158.03 42.6287V46.0344L157.754 46.1707H146.709V49.8488H158.858V53.5269H143.12L142.982 53.3907V35.1362L143.258 35Z" fill="#212214"/>
<path d="M123.793 35H134.837L135.941 35.9536L140.497 40.4491L140.635 40.994L140.497 51.8922L139.531 52.8458H139.255L138.978 53.3907L138.84 53.5269H123.655V35.1362L123.793 35ZM127.52 38.6781L127.382 39.768V49.1677L127.52 49.8488H136.908V42.3563L135.941 41.4027L135.113 40.7216L134.285 39.768H134.009L133.732 39.2231L133.18 38.6781H127.52Z" fill="#212214"/>
<path d="M86.7947 35H99.9096L101.842 36.9072V40.4491L101.704 40.5853H98.253L98.115 40.4491V38.6781H88.7274V49.8488H98.115V48.0778H101.704L101.842 48.2141V51.6198L100.876 52.7096L100.324 53.3907L100.048 53.5269H86.6566L85.6903 52.4371L85 51.756V36.9072L86.2425 35.5449L86.7947 35Z" fill="#212214"/>
<path d="M160.653 42.4925H167.969L168.107 42.6287V46.0344L167.969 46.1706H160.791L160.653 46.0344V42.4925Z" fill="#212214"/>
<path d="M36.3077 0L37.136 0.136228L39.759 1.63473L43.0723 3.54192L47.0758 5.72156L50.5271 7.62874L53.2882 9.26347L58.258 11.988L61.5713 13.8952L63.504 14.985L65.5748 16.2111L67.7836 17.3009L69.8544 18.5269L72.8916 20.1617L73.4438 20.5704L73.3057 20.979L71.511 22.0689L71.0969 22.3413L70.4066 22.2051L63.0899 17.982L59.5005 16.0749L56.1872 14.1677L50.3891 10.8982L47.0758 9.12725L45.2811 8.03743L41.4157 5.85778L39.759 4.90419L38.2405 4.08683L36.8599 3.40569L36.1697 3.54192L33.2706 5.17665L29.9573 7.08383L26.0919 9.3997L22.9167 11.1707L19.8795 12.9416L16.7043 14.8488L13.3911 16.756L10.492 18.3907L8.69729 19.4805L5.52209 21.3877L3.1752 22.75H2.8991V32.0135L3.1752 61.5749L3.31325 61.9835L4.00351 62.256L7.31677 64.0269L10.492 65.7979L14.0813 67.8413L16.8424 69.4761L18.499 70.2934L20.9839 71.6557L24.7113 73.8353L28.4388 75.8787L29.9573 76.6961L33.4086 78.6033L35.8936 80.1018L37.136 80.7829L37.8263 80.5105L40.0351 79.2844L43.9006 76.9686L46.3855 75.6063L50.251 73.2904L54.2545 70.9746L57.4297 69.2036L59.2244 68.1138L62.6757 66.0704L65.0226 64.7081L67.5075 63.3458L69.9925 61.8473L70.9588 61.3024L71.6491 61.4386L73.8579 62.3922V62.9371L70.9588 64.5719L64.8845 68.1138L61.4332 70.1572L57.9819 72.0644L55.3589 73.6991L51.7696 75.7425L50.3891 76.5599L46.5236 78.7395L43.6245 80.5105L40.7254 82.1452L37.9644 83.7799L37.2741 84.0524L35.6175 83.235L32.7184 81.6003L29.2671 79.6931L26.2299 77.9222L22.6406 76.015L20.2937 74.6527L16.7043 72.6093L13.8052 70.9746L10.7681 69.3398L7.45482 67.4326L3.86546 65.3892L0.552209 63.6183L0.276104 63.2096L0 21.3877L0.690261 20.8428L4.00351 18.9356L6.0743 17.7096L9.2495 15.9386L13.115 13.6228L16.1521 11.8518L19.0512 10.2171L23.4689 7.62874L26.9202 5.58533L30.5095 3.54192L32.8564 2.17964L35.4794 0.54491L36.3077 0Z" fill="#212214"/>
<path d="M36.3076 4.76794H37.1359L41.0014 6.94759L44.3147 8.85477L48.0421 10.8982L50.8031 12.3967L52.8739 13.6227L56.7394 15.8024L62.9517 19.2081L65.2986 20.5703L68.1977 22.2051L69.3021 23.0224L69.1641 23.4311H68.3357L64.8844 21.6602L61.157 19.4805L57.9818 17.7096L54.9447 16.0748L51.6314 14.1676L48.7323 12.5329L45.281 10.6257L42.1058 8.85477L38.7926 6.94759L36.9979 5.85776L36.3076 5.99399L34.3749 7.08381L31.89 8.58232L28.5767 10.4895L25.4015 12.2605L21.536 14.5763L17.5325 16.8922L13.9432 18.9356L10.0777 21.2515L7.04057 23.0224L5.24589 23.976V35.2829L5.38394 55.1721L5.52199 60.6212L8.14498 61.9835L11.4582 63.8907L15.3237 65.9341L20.9838 69.2036L22.3644 70.0209L24.2971 70.9745L27.6103 72.8817L31.4758 75.0614L34.513 76.6961L37.1359 78.1946L37.8262 78.0584L39.6209 76.9685L43.2102 74.9251L47.0757 72.6093L50.6651 70.5658L54.6686 68.25L59.5004 65.3892L63.0898 63.3458L65.1605 62.1197L68.1977 60.3488L69.4402 59.9401L69.8543 60.2126V60.485L67.5074 61.9835L63.642 64.1632L61.2951 65.5254L57.9818 67.4326L56.1872 68.5224L54.8066 69.3398L51.4934 71.247L47.6279 73.4266L45.8332 74.5164L43.7625 75.7425L40.8634 77.3772L38.1023 79.012L37.6882 79.2844L36.7218 79.1482L32.9944 77.1048L29.8192 75.3338L27.8864 74.244L25.2635 72.7455L22.0883 70.9745L18.0847 68.7949L15.7379 67.4326L11.8724 65.253L8.55914 63.482L5.66004 61.8473L4.41757 61.0299L4.27952 55.1721L4.00342 26.1557V23.7036L4.41757 23.1587L6.35031 22.2051L10.0777 20.0254L13.1149 18.2545L15.4618 16.8922L17.6706 15.6661L24.5732 11.5793L27.6103 9.94459L29.8192 8.58232L31.89 7.35627L35.0652 5.44908L36.3076 4.76794Z" fill="#212214"/>
<path d="M36.0316 30.515L36.7219 30.6512L35.7555 32.5584L34.7891 33.9207L33.4086 36.2366L31.3378 39.506L30.6476 40.4596L30.7856 41.0045L32.9944 44.5465L35.3413 48.3608L36.5838 50.268L36.7219 50.6767L36.5838 50.8129H27.7485L27.3343 50.6767L25.2635 47.4072L23.3308 44.4102L21.6742 41.5494L21.26 40.8683L21.5361 40.0509L23.4688 36.7815L25.2635 34.0569L27.0582 31.1962L27.4724 30.6512L36.0316 30.515ZM28.3007 31.7411L28.1626 32.4222L28.3007 35.0105L28.8529 37.8713L29.5431 39.506L30.0954 39.3698L31.4759 37.0539L33.6847 33.7845L34.6511 31.8773L28.3007 31.7411ZM26.7821 33.7845L25.2635 36.1003L23.6069 38.6887L22.5025 40.4596L22.6405 41.1408L24.8494 44.6827L26.3679 46.9985L27.4724 48.7695L28.0246 49.5869H34.6511L33.6847 47.6797L32.1661 45.3638L29.129 40.4596L28.0246 38.0075L27.4724 36.2366L27.0582 33.7845H26.7821Z" fill="#212214"/>
<path d="M38.5166 30.515H47.49L48.0422 30.7875L49.9749 33.9207L51.4935 36.2366L53.1501 39.0974L54.1165 40.4596L53.9784 41.1408L53.1501 42.3668L50.9413 46.045L47.9042 50.6767L47.628 50.8129H38.7927L38.6547 50.4042L39.7591 48.6333L41.2776 46.1812L44.5909 41.0045V40.4596L42.7962 37.5988L41.2776 35.283L39.483 32.286L38.5166 30.7875V30.515ZM41.1396 31.7411L40.4493 31.8773L41.4157 33.512L43.0723 35.9641L44.867 38.8249L46.3856 41.4132L47.3519 43.5929L47.9042 45.6363L48.1803 47.8159H48.4564L49.8369 45.6363L51.3555 43.3204L52.736 40.8683L52.4599 40.1872L51.3555 38.1438L49.4227 35.1468L48.3183 33.3758L47.3519 32.0135L47.0758 31.7411H41.1396ZM45.2812 41.9581L44.4528 43.1842L42.9343 45.6363L41.4157 47.9521L40.4493 49.4506V49.5869L46.3856 49.7231L47.0758 49.5869V47.1348L46.6617 44.6827L45.9714 42.6393L45.5573 41.9581H45.2812Z" fill="#212214"/>
</svg>
