<svg width="74" height="85" viewBox="0 0 74 85" fill="none" xmlns="http://www.w3.org/2000/svg">
<path d="M38.5166 30.515H47.49L48.0422 30.7874L49.9749 33.9207L51.4935 36.2365L53.1501 39.0973L54.1165 40.4596L53.9784 41.1407L53.1501 42.3668L50.9413 46.0449L47.9042 50.6767L47.628 50.8129H38.7927L38.6547 50.4042L39.7591 48.6332L41.2776 46.1812L44.5909 41.0045V40.4596L42.7962 37.5988L41.2776 35.2829L39.483 32.2859L38.5166 30.7874V30.515ZM41.1396 31.741L40.4493 31.8773L41.4157 33.512L43.0723 35.9641L44.867 38.8249L46.3856 41.4132L47.3519 43.5928L47.9042 45.6362L48.1803 47.8159H48.4564L49.8369 45.6362L51.3555 43.3204L52.736 40.8683L52.4599 40.1871L51.3555 38.1437L49.4227 35.1467L48.3183 33.3758L47.3519 32.0135L47.0758 31.741H41.1396ZM45.2812 41.9581L44.4528 43.1841L42.9343 45.6362L41.4157 47.9521L40.4493 49.4506V49.5868L46.3856 49.7231L47.0758 49.5868V47.1347L46.6617 44.6826L45.9714 42.6392L45.5573 41.9581H45.2812Z" fill="#212214"/>
<path d="M36.0316 30.515L36.7219 30.6512L35.7555 32.5584L34.7891 33.9207L33.4086 36.2365L31.3378 39.506L30.6476 40.4596L30.7856 41.0045L32.9944 44.5464L35.3413 48.3608L36.5838 50.268L36.7219 50.6767L36.5838 50.8129H27.7485L27.3343 50.6767L25.2635 47.4072L23.3308 44.4102L21.6742 41.5494L21.26 40.8683L21.5361 40.0509L23.4688 36.7815L25.2635 34.0569L27.0582 31.1961L27.4724 30.6512L36.0316 30.515ZM28.3007 31.741L28.1626 32.4222L28.3007 35.0105L28.8529 37.8713L29.5431 39.506L30.0954 39.3698L31.4759 37.0539L33.6847 33.7844L34.6511 31.8773L28.3007 31.741ZM26.7821 33.7844L25.2635 36.1003L23.6069 38.6886L22.5025 40.4596L22.6405 41.1407L24.8494 44.6826L26.3679 46.9985L27.4724 48.7695L28.0246 49.5868H34.6511L33.6847 47.6797L32.1661 45.3638L29.129 40.4596L28.0246 38.0075L27.4724 36.2365L27.0582 33.7844H26.7821Z" fill="#212214"/>
<path d="M36.3078 4.76797H37.1361L41.0015 6.94762L44.3148 8.8548L48.0422 10.8982L50.8032 12.3967L52.874 13.6228L56.7395 15.8024L62.9518 19.2081L65.2987 20.5704L68.1978 22.2051L69.3022 23.0225L69.1642 23.4311H68.3359L64.8846 21.6602L61.1572 19.4806L57.982 17.7096L54.9448 16.0749L51.6316 14.1677L48.7325 12.5329L45.2812 10.6258L42.106 8.8548L38.7927 6.94762L36.998 5.8578L36.3078 5.99402L34.375 7.08384L31.8901 8.58235L28.5768 10.4895L25.4016 12.2605L21.5362 14.5764L17.5327 16.8922L13.9433 18.9356L10.0778 21.2515L7.04069 23.0225L5.24601 23.9761V35.2829L5.38406 55.1722L5.52211 60.6213L8.14511 61.9835L11.4584 63.8907L15.3238 65.9341L20.984 69.2036L22.3645 70.021L24.2972 70.9746L27.6105 72.8817L31.4759 75.0614L34.5131 76.6961L37.1361 78.1946L37.8263 78.0584L39.621 76.9686L43.2104 74.9252L47.0758 72.6093L50.6652 70.5659L54.6687 68.25L59.5005 65.3892L63.0899 63.3458L65.1607 62.1198L68.1978 60.3488L69.4403 59.9401L69.8544 60.2126V60.485L67.5076 61.9835L63.6421 64.1632L61.2952 65.5255L57.982 67.4326L56.1873 68.5225L54.8068 69.3398L51.4935 71.247L47.628 73.4267L45.8334 74.5165L43.7626 75.7425L40.8635 77.3773L38.1024 79.012L37.6883 79.2844L36.7219 79.1482L32.9945 77.1048L29.8193 75.3338L27.8866 74.244L25.2636 72.7455L22.0884 70.9746L18.0849 68.7949L15.738 67.4326L11.8725 65.253L8.55926 63.482L5.66017 61.8473L4.4177 61.03L4.27964 55.1722L4.00354 26.1557V23.7036L4.4177 23.1587L6.35043 22.2051L10.0778 20.0255L13.115 18.2545L15.4619 16.8922L17.6707 15.6662L24.5733 11.5794L27.6105 9.94462L29.8193 8.58235L31.8901 7.3563L35.0653 5.44911L36.3078 4.76797Z" fill="#212214"/>
<path d="M36.3077 0L37.136 0.136228L39.759 1.63473L43.0723 3.54192L47.0758 5.72156L50.5271 7.62874L53.2882 9.26347L58.258 11.988L61.5713 13.8952L63.504 14.985L65.5748 16.2111L67.7836 17.3009L69.8544 18.5269L72.8916 20.1617L73.4438 20.5704L73.3057 20.979L71.511 22.0689L71.0969 22.3413L70.4066 22.2051L63.0899 17.982L59.5005 16.0749L56.1872 14.1677L50.3891 10.8982L47.0758 9.12725L45.2811 8.03743L41.4157 5.85778L39.759 4.90419L38.2405 4.08683L36.8599 3.40569L36.1697 3.54192L33.2706 5.17665L29.9573 7.08383L26.0919 9.3997L22.9167 11.1707L19.8795 12.9416L16.7043 14.8488L13.3911 16.756L10.492 18.3907L8.69729 19.4805L5.52209 21.3877L3.1752 22.75H2.8991V32.0135L3.1752 61.5749L3.31325 61.9835L4.00351 62.256L7.31677 64.0269L10.492 65.7979L14.0813 67.8413L16.8424 69.476L18.499 70.2934L20.9839 71.6557L24.7113 73.8353L28.4388 75.8787L29.9573 76.6961L33.4086 78.6033L35.8936 80.1018L37.136 80.7829L37.8263 80.5105L40.0351 79.2844L43.9006 76.9686L46.3855 75.6063L50.251 73.2904L54.2545 70.9746L57.4297 69.2036L59.2244 68.1138L62.6757 66.0704L65.0226 64.7081L67.5075 63.3458L69.9925 61.8473L70.9588 61.3024L71.6491 61.4386L73.8579 62.3922V62.9371L70.9588 64.5719L64.8845 68.1138L61.4332 70.1572L57.9819 72.0644L55.3589 73.6991L51.7696 75.7425L50.3891 76.5599L46.5236 78.7395L43.6245 80.5105L40.7254 82.1452L37.9644 83.7799L37.2741 84.0524L35.6175 83.235L32.7184 81.6003L29.2671 79.6931L26.2299 77.9222L22.6406 76.015L20.2937 74.6527L16.7043 72.6093L13.8052 70.9746L10.7681 69.3398L7.45482 67.4326L3.86546 65.3892L0.552209 63.6183L0.276104 63.2096L0 21.3877L0.690261 20.8428L4.00351 18.9356L6.0743 17.7096L9.2495 15.9386L13.115 13.6228L16.1521 11.8518L19.0512 10.2171L23.4689 7.62874L26.9202 5.58533L30.5095 3.54192L32.8564 2.17964L35.4794 0.54491L36.3077 0Z" fill="#212214"/>
</svg>
